<mxfile host="Electron" modified="2023-08-30T11:46:33.048Z" agent="Mozilla/5.0 (Windows NT 10.0; Win64; x64) AppleWebKit/537.36 (KHTML, like Gecko) draw.io/21.5.1 Chrome/112.0.5615.204 Electron/24.6.0 Safari/537.36" etag="vhuXkmoWINqQg1opIyi9" version="21.5.1" type="device">
  <diagram name="第 1 页" id="6i_aLsLNhZJZ45st5vYF">
    <mxGraphModel dx="665" dy="481" grid="0" gridSize="10" guides="1" tooltips="1" connect="1" arrows="1" fold="1" page="1" pageScale="1" pageWidth="827" pageHeight="1169" math="0" shadow="0">
      <root>
        <mxCell id="0" />
        <mxCell id="1" parent="0" />
        <mxCell id="ZER00tfDVyUzC46bnwLJ-1" value="&lt;h1&gt;0&lt;/h1&gt;" style="whiteSpace=wrap;html=1;aspect=fixed;direction=south;" parent="1" vertex="1">
          <mxGeometry y="100" width="75" height="75" as="geometry" />
        </mxCell>
        <mxCell id="ZER00tfDVyUzC46bnwLJ-2" value="&lt;font style=&quot;font-size: 24px;&quot;&gt;&lt;b&gt;1&lt;br&gt;&lt;/b&gt;&lt;/font&gt;" style="whiteSpace=wrap;html=1;aspect=fixed;" parent="1" vertex="1">
          <mxGeometry x="75" y="100" width="75" height="75" as="geometry" />
        </mxCell>
        <mxCell id="ZER00tfDVyUzC46bnwLJ-3" value="&lt;font style=&quot;font-size: 24px;&quot;&gt;&lt;b&gt;2&lt;/b&gt;&lt;/font&gt;" style="whiteSpace=wrap;html=1;aspect=fixed;" parent="1" vertex="1">
          <mxGeometry x="150" y="100" width="75" height="75" as="geometry" />
        </mxCell>
        <mxCell id="ZER00tfDVyUzC46bnwLJ-7" value="" style="endArrow=classic;html=1;rounded=0;" parent="1" edge="1">
          <mxGeometry width="50" height="50" relative="1" as="geometry">
            <mxPoint x="38" y="209" as="sourcePoint" />
            <mxPoint x="38" y="175" as="targetPoint" />
          </mxGeometry>
        </mxCell>
        <mxCell id="ZER00tfDVyUzC46bnwLJ-8" value="" style="endArrow=classic;html=1;rounded=0;" parent="1" edge="1">
          <mxGeometry width="50" height="50" relative="1" as="geometry">
            <mxPoint x="187" y="68" as="sourcePoint" />
            <mxPoint x="187" y="99" as="targetPoint" />
          </mxGeometry>
        </mxCell>
        <mxCell id="ZER00tfDVyUzC46bnwLJ-9" value="&lt;font style=&quot;font-size: 20px;&quot;&gt;left&lt;/font&gt;" style="text;html=1;align=center;verticalAlign=middle;resizable=0;points=[];autosize=1;strokeColor=none;fillColor=none;" parent="1" vertex="1">
          <mxGeometry x="15" y="201" width="45" height="36" as="geometry" />
        </mxCell>
        <mxCell id="ZER00tfDVyUzC46bnwLJ-10" value="&lt;font style=&quot;font-size: 20px;&quot;&gt;right&lt;/font&gt;" style="text;html=1;align=center;verticalAlign=middle;resizable=0;points=[];autosize=1;strokeColor=none;fillColor=none;" parent="1" vertex="1">
          <mxGeometry x="163" y="32" width="57" height="36" as="geometry" />
        </mxCell>
        <mxCell id="ZER00tfDVyUzC46bnwLJ-11" value="middle" style="text;html=1;align=center;verticalAlign=middle;resizable=0;points=[];autosize=1;strokeColor=none;fillColor=none;" parent="1" vertex="1">
          <mxGeometry x="86" y="149" width="53" height="26" as="geometry" />
        </mxCell>
        <mxCell id="ZER00tfDVyUzC46bnwLJ-14" value="target" style="text;html=1;align=center;verticalAlign=middle;resizable=0;points=[];autosize=1;strokeColor=none;fillColor=none;" parent="1" vertex="1">
          <mxGeometry x="15" y="149" width="49" height="26" as="geometry" />
        </mxCell>
        <mxCell id="ZER00tfDVyUzC46bnwLJ-17" value="&lt;font style=&quot;font-size: 24px;&quot;&gt;&lt;b&gt;0&lt;/b&gt;&lt;/font&gt;" style="whiteSpace=wrap;html=1;aspect=fixed;" parent="1" vertex="1">
          <mxGeometry x="320" y="100" width="75" height="75" as="geometry" />
        </mxCell>
        <mxCell id="ZER00tfDVyUzC46bnwLJ-18" value="&lt;b&gt;&lt;font style=&quot;font-size: 24px;&quot;&gt;1&lt;/font&gt;&lt;/b&gt;" style="whiteSpace=wrap;html=1;aspect=fixed;" parent="1" vertex="1">
          <mxGeometry x="395" y="100" width="75" height="75" as="geometry" />
        </mxCell>
        <mxCell id="ZER00tfDVyUzC46bnwLJ-19" value="&lt;b&gt;&lt;font style=&quot;font-size: 24px;&quot;&gt;2&lt;/font&gt;&lt;/b&gt;" style="whiteSpace=wrap;html=1;aspect=fixed;" parent="1" vertex="1">
          <mxGeometry x="470" y="100" width="75" height="75" as="geometry" />
        </mxCell>
        <mxCell id="ZER00tfDVyUzC46bnwLJ-20" value="" style="shape=flexArrow;endArrow=classic;html=1;rounded=0;exitX=1;exitY=0.5;exitDx=0;exitDy=0;" parent="1" source="ZER00tfDVyUzC46bnwLJ-3" edge="1">
          <mxGeometry width="50" height="50" relative="1" as="geometry">
            <mxPoint x="174" y="228" as="sourcePoint" />
            <mxPoint x="318" y="138" as="targetPoint" />
          </mxGeometry>
        </mxCell>
        <mxCell id="ZER00tfDVyUzC46bnwLJ-21" value="&lt;font style=&quot;font-size: 20px;&quot;&gt;left&lt;/font&gt;" style="text;html=1;align=center;verticalAlign=middle;resizable=0;points=[];autosize=1;strokeColor=none;fillColor=none;" parent="1" vertex="1">
          <mxGeometry x="335" y="201" width="45" height="36" as="geometry" />
        </mxCell>
        <mxCell id="ZER00tfDVyUzC46bnwLJ-22" value="target" style="text;html=1;align=center;verticalAlign=middle;resizable=0;points=[];autosize=1;strokeColor=none;fillColor=none;" parent="1" vertex="1">
          <mxGeometry x="336" y="149" width="49" height="26" as="geometry" />
        </mxCell>
        <mxCell id="ZER00tfDVyUzC46bnwLJ-23" value="middle" style="text;html=1;align=center;verticalAlign=middle;resizable=0;points=[];autosize=1;strokeColor=none;fillColor=none;" parent="1" vertex="1">
          <mxGeometry x="403" y="149" width="53" height="26" as="geometry" />
        </mxCell>
        <mxCell id="ZER00tfDVyUzC46bnwLJ-26" value="&lt;span style=&quot;color: rgb(0, 0, 0); font-family: Helvetica; font-size: 20px; font-style: normal; font-variant-ligatures: normal; font-variant-caps: normal; font-weight: 400; letter-spacing: normal; orphans: 2; text-align: center; text-indent: 0px; text-transform: none; widows: 2; word-spacing: 0px; -webkit-text-stroke-width: 0px; background-color: rgb(251, 251, 251); text-decoration-thickness: initial; text-decoration-style: initial; text-decoration-color: initial; float: none; display: inline !important;&quot;&gt;right&lt;/span&gt;" style="text;whiteSpace=wrap;html=1;" parent="1" vertex="1">
          <mxGeometry x="336" y="32" width="70" height="48" as="geometry" />
        </mxCell>
        <mxCell id="ZER00tfDVyUzC46bnwLJ-32" value="" style="endArrow=classic;html=1;rounded=0;" parent="1" edge="1">
          <mxGeometry width="50" height="50" relative="1" as="geometry">
            <mxPoint x="358" y="210" as="sourcePoint" />
            <mxPoint x="358" y="175" as="targetPoint" />
          </mxGeometry>
        </mxCell>
        <mxCell id="ZER00tfDVyUzC46bnwLJ-35" value="" style="endArrow=classic;html=1;rounded=0;entryX=0.5;entryY=0;entryDx=0;entryDy=0;" parent="1" target="ZER00tfDVyUzC46bnwLJ-17" edge="1">
          <mxGeometry width="50" height="50" relative="1" as="geometry">
            <mxPoint x="358" y="70" as="sourcePoint" />
            <mxPoint x="385" y="18" as="targetPoint" />
          </mxGeometry>
        </mxCell>
        <mxCell id="ZER00tfDVyUzC46bnwLJ-37" value="" style="endArrow=classic;html=1;rounded=0;entryX=0.639;entryY=-0.064;entryDx=0;entryDy=0;entryPerimeter=0;" parent="1" source="ZER00tfDVyUzC46bnwLJ-23" target="ZER00tfDVyUzC46bnwLJ-22" edge="1">
          <mxGeometry width="50" height="50" relative="1" as="geometry">
            <mxPoint x="200" y="210" as="sourcePoint" />
            <mxPoint x="250" y="160" as="targetPoint" />
          </mxGeometry>
        </mxCell>
      </root>
    </mxGraphModel>
  </diagram>
</mxfile>
